<?xml version="1.0" encoding="utf-8"?>
<!-- Generator: Adobe Illustrator 19.0.0, SVG Export Plug-In . SVG Version: 6.00 Build 0)  -->
<svg version="1.1" id="Layer_1" xmlns="http://www.w3.org/2000/svg" xmlns:xlink="http://www.w3.org/1999/xlink" x="0px" y="0px"
	 viewBox="0 0 166.1 83.2" style="enable-background:new 0 0 166.1 83.2;" xml:space="preserve">
<style type="text/css">
	.st0{fill-rule:evenodd;clip-rule:evenodd;fill:#9B3336;}
	.st1{fill-rule:evenodd;clip-rule:evenodd;fill:#2993B7;}
	.st2{fill:#2993B7;}
	.st3{fill:#9B3336;}
</style>
<path id="XMLID_60_" class="st0" d="M38.2,43.9c1.1,0,2-0.9,2-2.1c0-1.1-0.9-2.1-2-2.1c-1.1,0-2,0.9-2,2.1
	C36.1,43,37.1,43.9,38.2,43.9"/>
<path id="XMLID_59_" class="st0" d="M63.9,18.1c-3.6,0-6.8,2-8.4,5c0,0-0.1,0.1-0.1,0.1c-0.1,0.1-0.1,0.3-0.2,0.5c0,0,0,0,0,0
	c-2.9,5.6-8.5,9.6-15.1,10.3V37c0.1,0,0.1,0.1,0.2,0.1c1.8,0.8,3.1,2.6,3.1,4.7c0,2.9-2.3,5.2-5.2,5.2S33,44.7,33,41.8
	c0-2.1,1.3-3.9,3.1-4.7c0,0,0.1-0.1,0.2-0.1v-3.1c-6.6-0.7-12.2-4.6-15.1-10.3c-0.1-0.2-0.2-0.3-0.2-0.5c0,0,0-0.1,0-0.1
	c-1.6-3-4.8-5-8.4-5c-5.3,0-9.6,4.3-9.6,9.6c0,5.3,4.3,9.6,9.6,9.6c0.1,0,0.2,0,0.4,0h0c0.2,0,0.4,0,0.6,0c0,0,0.1,0,0.1,0
	c0.4,0,0.8,0,1.3,0c6.7,0,12.6,3.5,16,8.7c0.2,0.4,0.5,0.7,0.7,1.1c1.5,2.8,2.4,5.9,2.4,9.3c0,3.9-1.2,7.5-3.2,10.5c0,0,0,0,0,0
	c-0.3,0.3-0.6,0.7-0.8,1.1l0,0c-0.9,1.4-1.4,3.1-1.4,4.9c0,5.3,4.3,9.6,9.6,9.6c5.3,0,9.6-4.3,9.6-9.6c0-1.8-0.5-3.5-1.4-5
	c0,0,0,0,0-0.1c-0.2-0.3-0.4-0.7-0.7-1c-2-3-3.2-6.7-3.2-10.6c0-3.6,1-7,2.7-9.9c0,0,0,0,0-0.1c3.4-5.5,9.4-9.2,16.4-9.2
	c0.4,0,0.8,0,1.2,0c0,0,0.1,0,0.1,0c0.2,0,0.4,0,0.6,0h0c0.1,0,0.2,0,0.4,0c5.3,0,9.6-4.3,9.6-9.6C73.4,22.4,69.2,18.1,63.9,18.1"/>
<path id="XMLID_58_" class="st1" d="M53,14.8c0,8.2-6.6,14.8-14.8,14.8c-8.2,0-14.8-6.6-14.8-14.8C23.3,6.6,30,0,38.2,0
	C46.3,0,53,6.6,53,14.8"/>
<path id="XMLID_57_" class="st1" d="M29.7,56.2C29.7,64.4,23,71,14.8,71C6.6,71,0,64.4,0,56.2C0,48,6.6,41.3,14.8,41.3
	C23,41.3,29.7,48,29.7,56.2"/>
<path id="XMLID_56_" class="st1" d="M76.4,56.2c0,8.2-6.6,14.8-14.8,14.8c-8.2,0-14.8-6.6-14.8-14.8c0-8.2,6.6-14.8,14.8-14.8
	C69.7,41.3,76.4,48,76.4,56.2"/>
<polygon id="XMLID_55_" class="st2" points="88.7,74.4 88.7,72 86.4,72 86.4,74.4 85.8,74.4 85.8,69.3 86.4,69.3 86.4,71.5 
	88.7,71.5 88.7,69.3 89.4,69.3 89.4,74.4 "/>
<rect id="XMLID_54_" x="90.7" y="69.3" class="st2" width="0.6" height="5.1"/>
<path id="XMLID_53_" class="st2" d="M96.4,74.5H96l-0.2-0.6c-0.3,0.5-0.9,0.7-1.4,0.7c-0.7,0-1.2-0.2-1.6-0.8
	c-0.4-0.5-0.5-1.1-0.5-1.8c0-1.3,0.7-2.7,2.2-2.7c1,0,1.6,0.6,1.8,1.5l-0.6,0.1c-0.1-0.6-0.6-1.1-1.3-1.1c-1.2,0-1.5,1.2-1.5,2.1
	c0,0.4,0.1,1,0.3,1.3c0.2,0.4,0.7,0.7,1.2,0.7c0.8,0,1.3-0.5,1.3-1.3v-0.3h-1.3v-0.5h1.9V74.5z"/>
<polygon id="XMLID_52_" class="st2" points="100.5,74.4 100.5,72 98.1,72 98.1,74.4 97.5,74.4 97.5,69.3 98.1,69.3 98.1,71.5 
	100.5,71.5 100.5,69.3 101.1,69.3 101.1,74.4 "/>
<rect id="XMLID_51_" x="101.7" y="72.3" class="st2" width="1.6" height="0.5"/>
<path class="st2" d="M107.5,74.4h-0.7l-0.5-1.5h-1.9l-0.5,1.5h-0.5l1.6-5.1h0.7L107.5,74.4z M105.4,70l-0.8,2.4h1.6L105.4,70z"/>
<path id="XMLID_48_" class="st2" d="M108.4,72.9c0.2,0.7,0.8,1,1.5,1c0.3,0,0.7-0.1,0.9-0.3c0.2-0.1,0.3-0.4,0.3-0.7
	c0-0.5-0.4-0.7-0.9-0.8l-0.8-0.2c-0.3-0.1-0.7-0.2-0.9-0.4c-0.3-0.2-0.4-0.6-0.4-0.9c0-1,0.8-1.4,1.7-1.4c0.9,0,1.5,0.4,1.8,1.2
	l-0.6,0.2c-0.1-0.6-0.7-0.9-1.2-0.9c-0.5,0-1.1,0.3-1.1,0.8c0,0.6,0.4,0.7,0.9,0.8l0.8,0.2c0.3,0.1,0.7,0.2,0.9,0.4
	c0.3,0.3,0.5,0.6,0.5,1c0,0.5-0.2,0.9-0.6,1.2c-0.4,0.3-0.9,0.4-1.3,0.4c-1,0-1.7-0.5-2.1-1.4L108.4,72.9z"/>
<path id="XMLID_47_" class="st2" d="M113,72.9c0.2,0.7,0.8,1,1.5,1c0.3,0,0.7-0.1,0.9-0.3c0.2-0.1,0.3-0.4,0.3-0.7
	c0-0.5-0.4-0.7-0.9-0.8L114,72c-0.3-0.1-0.7-0.2-0.9-0.4c-0.3-0.2-0.4-0.6-0.4-0.9c0-1,0.8-1.4,1.7-1.4c0.9,0,1.5,0.4,1.8,1.2
	l-0.6,0.2c-0.1-0.6-0.7-0.9-1.2-0.9c-0.5,0-1.1,0.3-1.1,0.8c0,0.6,0.4,0.7,0.9,0.8l0.8,0.2c0.3,0.1,0.7,0.2,0.9,0.4
	c0.3,0.3,0.5,0.6,0.5,1c0,0.5-0.2,0.9-0.6,1.2c-0.4,0.3-0.9,0.4-1.3,0.4c-1,0-1.7-0.5-2.1-1.4L113,72.9z"/>
<path id="XMLID_46_" class="st2" d="M120.9,72.6c0,0.5,0,1-0.4,1.4c-0.3,0.4-0.9,0.6-1.4,0.6c-0.5,0-1-0.1-1.4-0.5
	c-0.4-0.4-0.4-0.9-0.4-1.5v-3.2h0.6v3.2c0,0.3,0,0.7,0.2,1c0.2,0.3,0.6,0.4,1,0.4c0.3,0,0.7-0.1,0.9-0.4c0.2-0.3,0.2-0.7,0.2-1v-3.2
	h0.5V72.6z"/>
<path class="st2" d="M125.1,74.4l-0.9-2.2h-1.4v2.2h-0.6v-5.1h1.9c0.4,0,0.8,0.1,1.2,0.3c0.3,0.3,0.5,0.7,0.5,1.1
	c0,0.6-0.4,1.1-0.9,1.3l1,2.4H125.1z M123.9,71.7c0.3,0,0.6,0,0.9-0.3c0.2-0.2,0.3-0.4,0.3-0.7c0-0.3-0.1-0.5-0.4-0.7
	c-0.2-0.2-0.4-0.2-0.7-0.2h-1.3v1.8H123.9z"/>
<path class="st2" d="M130.2,74.4h-0.7L129,73h-1.9l-0.5,1.5h-0.5l1.6-5.1h0.7L130.2,74.4z M128.1,70l-0.8,2.4h1.6L128.1,70z"/>
<polygon id="XMLID_41_" class="st2" points="134.6,74.4 133.9,74.4 131.3,70 131.3,74.4 130.8,74.4 130.8,69.3 131.6,69.3 134,73.5 
	134,69.3 134.6,69.3 "/>
<path id="XMLID_40_" class="st2" d="M139.4,72.8c-0.2,1-0.8,1.7-1.9,1.7c-1.5,0-2.1-1.4-2.1-2.7c0-1.3,0.6-2.6,2.1-2.6
	c1,0,1.6,0.7,1.8,1.6l-0.6,0.1c-0.2-0.6-0.5-1.2-1.3-1.2c-1.1,0-1.4,1.2-1.4,2.1c0,0.4,0.1,0.9,0.2,1.3c0.2,0.4,0.6,0.8,1.1,0.8
	c0.8,0,1.1-0.6,1.3-1.3L139.4,72.8z"/>
<polygon id="XMLID_39_" class="st2" points="143.6,74.4 140.4,74.4 140.4,69.3 143.6,69.3 143.6,69.9 141,69.9 141,71.5 143,71.5 
	143,72 141,72 141,73.9 143.6,73.9 "/>
<path id="XMLID_38_" class="st2" d="M86,81.6c0.2,0.7,0.8,1,1.5,1c0.3,0,0.7-0.1,0.9-0.3c0.2-0.1,0.3-0.4,0.3-0.7
	c0-0.5-0.4-0.7-0.9-0.8L87,80.7c-0.3-0.1-0.7-0.2-0.9-0.4s-0.4-0.6-0.4-0.9c0-1,0.8-1.4,1.7-1.4c0.9,0,1.5,0.4,1.8,1.2l-0.6,0.2
	c-0.1-0.6-0.7-0.9-1.2-0.9c-0.5,0-1.1,0.3-1.1,0.8c0,0.6,0.4,0.7,0.9,0.8l0.8,0.2c0.3,0.1,0.7,0.2,0.9,0.4c0.3,0.3,0.5,0.6,0.5,1
	c0,0.5-0.2,0.9-0.6,1.2c-0.4,0.3-0.9,0.4-1.3,0.4c-1,0-1.7-0.5-2.1-1.4L86,81.6z"/>
<path class="st2" d="M90.1,80.6c0-1.3,0.6-2.7,2.1-2.7c1.4,0,2.1,1.3,2.1,2.6c0,1.2-0.6,2.7-2.1,2.7C90.7,83.2,90.1,81.9,90.1,80.6
	 M93.6,80.5c0-0.5-0.1-1-0.3-1.4c-0.2-0.4-0.6-0.7-1.1-0.7c-1.1,0-1.4,1.2-1.4,2.1c0,0.9,0.4,2.1,1.4,2.1
	C93.3,82.6,93.6,81.4,93.6,80.5"/>
<polygon id="XMLID_35_" class="st2" points="95.2,83.1 95.2,78 98.3,78 98.3,78.6 95.9,78.6 95.9,80.2 97.9,80.2 97.9,80.7 
	95.9,80.7 95.9,83.1 "/>
<polygon id="XMLID_34_" class="st2" points="100.4,83.1 99.7,83.1 99.7,78.6 98.3,78.6 98.3,78 101.8,78 101.8,78.6 100.4,78.6 "/>
<polygon id="XMLID_33_" class="st2" points="106.7,83.1 106,83.1 104.9,79.1 103.9,83.1 103.3,83.1 102,78 102.6,78 103.6,82.1 
	103.6,82.1 104.7,78 105.2,78 106.4,82.1 106.4,82.1 107.4,78 107.9,78 "/>
<path class="st2" d="M111.8,83.1h-0.7l-0.5-1.5h-1.9l-0.5,1.5h-0.5l1.6-5.1h0.7L111.8,83.1z M109.7,78.7l-0.8,2.4h1.6L109.7,78.7z"
	/>
<path class="st2" d="M115.4,83.1l-0.9-2.2h-1.4v2.2h-0.6V78h1.9c0.4,0,0.8,0.1,1.2,0.3c0.3,0.3,0.5,0.7,0.5,1.1c0,0.6-0.4,1.1-1,1.3
	l1,2.4H115.4z M114.3,80.4c0.3,0,0.6,0,0.9-0.3c0.2-0.2,0.3-0.4,0.3-0.7c0-0.3-0.1-0.5-0.4-0.7c-0.2-0.2-0.4-0.2-0.7-0.2h-1.3v1.8
	H114.3z"/>
<polygon id="XMLID_28_" class="st2" points="120.4,83.1 117.1,83.1 117.1,78 120.3,78 120.3,78.6 117.7,78.6 117.7,80.2 119.7,80.2 
	119.7,80.7 117.7,80.7 117.7,82.5 120.4,82.5 "/>
<polygon id="XMLID_27_" class="st2" points="126.4,83.1 123.4,83.1 123.4,78 124.1,78 124.1,82.5 126.4,82.5 "/>
<path class="st2" d="M130.6,83.1H130l-0.5-1.5h-1.9l-0.5,1.5h-0.5l1.6-5.1h0.7L130.6,83.1z M128.5,78.7l-0.8,2.4h1.6L128.5,78.7z"/>
<path class="st2" d="M131.3,83.1V78h1.9c0.4,0,0.7,0,1,0.2c0.3,0.2,0.5,0.6,0.5,1c0,0.6-0.3,1-0.9,1.1v0c0.6,0.1,1.1,0.6,1.1,1.3
	c0,0.4-0.1,0.8-0.5,1.1c-0.4,0.3-0.8,0.3-1.3,0.3H131.3z M132.9,80.2c0.3,0,0.7,0,0.9-0.2c0.2-0.1,0.3-0.4,0.3-0.7
	c0-0.3-0.1-0.5-0.4-0.7c-0.2-0.1-0.5-0.1-0.7-0.1h-1.1v1.7H132.9z M133.2,82.6c0.3,0,0.6,0,0.8-0.2c0.2-0.2,0.3-0.4,0.3-0.7
	c0-0.3-0.1-0.6-0.4-0.8c-0.2-0.2-0.6-0.2-0.9-0.2h-1.2v1.9H133.2z"/>
<path class="st2" d="M135.6,80.6c0-1.3,0.6-2.7,2.1-2.7c1.4,0,2.1,1.3,2.1,2.6c0,1.2-0.6,2.7-2.1,2.7
	C136.3,83.2,135.6,81.9,135.6,80.6 M139.1,80.5c0-0.5-0.1-1-0.3-1.4c-0.2-0.4-0.6-0.7-1.1-0.7c-1.1,0-1.4,1.2-1.4,2.1
	c0,0.9,0.4,2.1,1.4,2.1C138.8,82.6,139.1,81.4,139.1,80.5"/>
<path class="st2" d="M143.8,83.1l-0.9-2.2h-1.4v2.2h-0.6V78h1.9c0.4,0,0.8,0.1,1.2,0.3c0.3,0.3,0.5,0.7,0.5,1.1
	c0,0.6-0.4,1.1-0.9,1.3l1,2.4H143.8z M142.6,80.4c0.3,0,0.6,0,0.9-0.3c0.2-0.2,0.3-0.4,0.3-0.7c0-0.3-0.1-0.5-0.4-0.7
	c-0.2-0.2-0.4-0.2-0.7-0.2h-1.3v1.8H142.6z"/>
<path class="st2" d="M148.9,83.1h-0.7l-0.5-1.5h-1.9l-0.5,1.5h-0.5l1.6-5.1h0.7L148.9,83.1z M146.8,78.7l-0.8,2.4h1.6L146.8,78.7z"
	/>
<polygon id="XMLID_15_" class="st2" points="150.6,83.1 150,83.1 150,78.6 148.5,78.6 148.5,78 152.1,78 152.1,78.6 150.6,78.6 "/>
<path class="st2" d="M152.5,80.6c0-1.3,0.6-2.7,2.1-2.7c1.4,0,2.1,1.3,2.1,2.6c0,1.2-0.6,2.7-2.1,2.7
	C153.2,83.2,152.5,81.9,152.5,80.6 M156,80.5c0-0.5-0.1-1-0.3-1.4c-0.2-0.4-0.6-0.7-1.1-0.7c-1.1,0-1.4,1.2-1.4,2.1
	c0,0.9,0.4,2.1,1.4,2.1C155.7,82.6,156,81.4,156,80.5"/>
<path class="st2" d="M160.6,83.1l-0.9-2.2h-1.4v2.2h-0.6V78h1.9c0.4,0,0.8,0.1,1.2,0.3c0.3,0.3,0.5,0.7,0.5,1.1c0,0.6-0.4,1.1-1,1.3
	l1,2.4H160.6z M159.5,80.4c0.3,0,0.6,0,0.9-0.3c0.2-0.2,0.3-0.4,0.3-0.7c0-0.3-0.1-0.5-0.4-0.7c-0.2-0.2-0.4-0.2-0.7-0.2h-1.3v1.8
	H159.5z"/>
<polygon id="XMLID_10_" class="st2" points="163.9,80.9 163.9,83.1 163.3,83.1 163.3,80.9 161.6,78 162.3,78 163.7,80.3 165,78 
	165.6,78 "/>
<polygon id="XMLID_9_" class="st3" points="98.2,64.9 94.4,64.9 94.4,58.2 89.4,58.2 89.4,64.9 85.6,64.9 85.6,48.6 89.4,48.6 
	89.4,55 94.4,55 94.4,48.6 98.2,48.6 "/>
<path class="st3" d="M114.6,64.9h-4.1l-1-3.3h-5.3l-1,3.3h-3.3l5.2-16.3h4.4L114.6,64.9z M108.7,58.5l-1.7-5.7l-1.7,5.7H108.7z"/>
<path id="XMLID_6_" class="st3" d="M124.6,53.2c-0.5-1.4-1.4-1.9-2.8-1.9c-1,0-2.3,0.3-2.3,1.5c0,1.2,1.4,1.5,2.3,1.6
	c1.3,0.3,3.1,0.6,4.2,1.4c1.3,0.9,2.1,2.2,2.1,3.8c0,1.6-0.8,3.1-2,4.1c-1.3,1-3.1,1.3-4.7,1.3c-3.1,0-5.8-1.3-6.6-4.5l3.5-0.8
	c0.5,1.7,1.7,2.3,3.4,2.3c1.1,0,2.5-0.4,2.5-1.8c0-1.3-1.9-1.6-2.8-1.8c-2.9-0.6-5.7-1.4-5.7-5c0-1.5,0.6-2.8,1.8-3.8
	c1.2-1,2.6-1.3,4.1-1.3c2.8,0,5.2,1,6.2,3.8L124.6,53.2z"/>
<polygon id="XMLID_5_" class="st3" points="140.9,61.6 140.9,64.9 130.5,64.9 130.5,48.6 134.3,48.6 134.3,61.6 "/>
<path class="st3" d="M149.5,64.9c-0.1-0.6-0.2-1.3-0.2-1.9c-1,1.4-2,2.1-3.8,2.1c-2.1,0-3.8-1.1-3.8-3.4c0-1.8,1.1-3,2.7-3.6
	c1.4-0.5,3.3-0.6,4.8-0.8v-0.3c0-0.5,0-1.1-0.3-1.6c-0.3-0.4-0.9-0.6-1.4-0.6c-1.1,0-2.1,0.6-2.1,1.8l-3.3-0.3
	c0.4-2.9,3.2-3.8,5.7-3.8c1.2,0,2.8,0.3,3.8,1.1c1.2,1,1.1,2.3,1.1,3.8v5.6c0,0.6,0,1.2,0.2,1.8H149.5z M149.2,59.1
	c-1.3,0.1-3.8,0.4-3.8,2.2c0,0.9,0.6,1.6,1.5,1.6c0.7,0,1.4-0.4,1.8-1c0.5-0.8,0.5-1.5,0.5-2.3V59.1z"/>
<path class="st3" d="M155.1,48.6h3.5v5.7h0.1c0.6-1.2,1.6-1.8,2.9-1.8c3.4,0,4.5,3.4,4.5,6.3c0,3.2-1.3,6.3-4.9,6.3
	c-1.7,0-2.6-0.6-3.4-2.1c-0.4,0.5-0.6,1.2-0.8,1.8h-1.9V48.6z M158.7,59.8c0,0.7,0,1.4,0.4,2c0.3,0.5,0.8,0.8,1.5,0.8
	c2,0,2-2.5,2-3.8c0-1.4,0-3.9-1.9-3.9c-1.7,0-1.9,1.8-1.9,3.1V59.8z"/>
</svg>
