<?xml version="1.0" encoding="utf-8"?>
<!-- Generator: Adobe Illustrator 16.0.0, SVG Export Plug-In . SVG Version: 6.00 Build 0)  -->
<!DOCTYPE svg PUBLIC "-//W3C//DTD SVG 1.1//EN" "http://www.w3.org/Graphics/SVG/1.1/DTD/svg11.dtd">
<svg version="1.1" id="Layer_1" xmlns="http://www.w3.org/2000/svg" xmlns:xlink="http://www.w3.org/1999/xlink" x="0px" y="0px"
	 width="1511.881px" height="1443.48px" viewBox="0 0 1511.881 1443.48" enable-background="new 0 0 1511.881 1443.48"
	 xml:space="preserve">
<rect y="0.011" fill="#A93439" width="756.181" height="843.366"/>
<path fill="#FFFFFF" d="M374.44,225.853c-12.717,0-22.971,10.304-22.971,22.99l-0.02,80.623c0,12.707,10.283,23.001,22.99,23.001
	c12.687,0,23.011-10.284,23.011-23.001l-0.02-80.623C397.432,236.136,387.147,225.853,374.44,225.853 M556.794,593.323
	l-68.281-41.186c-26.215-15.125-3.164-54.953,23.071-39.798l68.271,41.21C606.04,568.675,583.049,608.479,556.794,593.323
	 M206.937,592.001l70.134-39.763c26.235-15.155,3.225-54.988-22.98-39.868l-70.114,39.818
	C157.771,567.323,180.701,607.156,206.937,592.001 M351.47,681.731l-0.02-167.965c0-12.712,10.323-22.99,23.011-22.99
	c12.706,0,22.99,10.299,22.99,23l-0.02,167.955c0,12.687-10.254,23.001-22.971,22.99C361.754,704.722,351.47,694.428,351.47,681.731
	 M176.376,377.66l146.015,82.785c26.175,15.115,49.176-24.728,22.931-39.883l-146.035-82.771
	C173.081,322.667,150.15,362.515,176.376,377.66 M572.565,377.094l-144.413,84.083c-26.226,15.135-49.276-24.684-23.051-39.828
	l144.433-84.027C575.779,322.166,598.76,361.969,572.565,377.094"/>
<text transform="matrix(1 0 0 1 -0.0059 1252.2012)" fill="#99999A" font-family="'NewsGotT-Bol'" font-size="149.9326">U</text>
<text transform="matrix(1 0 0 1 90.7051 1252.2012)" fill="#99999A" font-family="'NewsGotT-Bol'" font-size="149.9326">ni</text>
<text transform="matrix(1 0 0 1 206.752 1252.2012)" fill="#99999A" font-family="'NewsGotT-Bol'" font-size="149.9326">v</text>
<text transform="matrix(1 0 0 1 272.2676 1252.2012)" fill="#99999A" font-family="'NewsGotT-Bol'" font-size="149.9326">e</text>
<text transform="matrix(1 0 0 1 347.3926 1252.2012)" fill="#99999A" font-family="'NewsGotT-Bol'" font-size="149.9326">r</text>
<text transform="matrix(1 0 0 1 406.0098 1252.2012)" fill="#99999A" font-family="'NewsGotT-Bol'" font-size="149.9326">sidade do Minho</text>
<text transform="matrix(1 0 0 1 -0.0059 1423.7251)" fill="#99999A" font-family="'NewsGotT-Lig'" font-size="149.9326">Escola de Engenharia</text>
<rect x="756.181" fill="#D35E13" width="755.701" height="843.146"/>
<path fill="#FFFFFF" d="M1091.288,245.919c24.433-17.759,51.429,19.351,26.977,37.12L954.726,402.032
	c-24.463,17.77-51.438-19.4-26.996-37.159L1091.288,245.919z M964.689,636.946c9.332,28.719,53.03,14.55,43.678-14.224
	l-63.524-191.426c-9.343-28.754-52.971-14.529-43.629,14.199L964.689,636.946z M1176.933,245.839l163.147,119.524
	c24.434,17.759-2.543,54.929-27.006,37.15l-163.128-119.561C1125.483,265.185,1152.49,228.08,1176.933,245.839 M1323.207,432.208
	l-62.332,192.257c-9.354,28.773,34.336,42.933,43.678,14.204l62.293-192.277C1376.189,417.658,1332.551,403.444,1323.207,432.208
	 M1233.848,689.401l-200.587,0.021c-12.697,0-22.961-10.314-22.961-22.966c0-12.688,10.284-22.971,22.961-22.971l200.587,0.02
	c12.658,0,22.941,10.244,22.941,22.951C1256.789,679.128,1246.516,689.401,1233.848,689.401"/>
</svg>
