<?xml version="1.0" encoding="utf-8"?>
<!-- Generator: Adobe Illustrator 22.1.0, SVG Export Plug-In . SVG Version: 6.00 Build 0)  -->
<svg version="1.1" id="Layer_1" xmlns="http://www.w3.org/2000/svg" xmlns:xlink="http://www.w3.org/1999/xlink" x="0px" y="0px"
	 viewBox="0 0 512 512" style="enable-background:new 0 0 512 512;" xml:space="preserve">
<g>
	<title>dblp</title>
	<g>
		<path d="M455.4,304.3l-45.9-171.7c0,0-2.9-11.1-13.6-6.2l-105,48.8l16.1,60l20.4,76.5l0.1,1.2c1,8.8-7.7,14.8-7.7,14.8L284.8,344
			l9.4,35.4l0.7,1.9c1.3,3.2,5.3,11.3,15.2,17.1l130.3,80.1c0,0,12.7,7.7,9.7-3.1L413,336.4l34.9-16.1
			C447.9,320.3,458.4,315.5,455.4,304.3L455.4,304.3z M314.1,306.1l-0.2-1.2l-21.2-79.1l-25-92.7v-0.7c0,0-3-11.1-15.7-18.7
			L121.7,33.6c0,0-12.7-7.7-9.7,3.1l37.3,139.2l-35,16.3c0,0-10.5,4.8-7.5,15.9l45.9,171.7c0,0,3,11.1,13.6,6.2l140-65.3
			C306.2,320.9,315.9,316.3,314.1,306.1z"/>
	</g>
</g>
</svg>
